<svg width="32" height="31" viewBox="0 0 32 31" fill="none" xmlns="http://www.w3.org/2000/svg">
<path d="M26.2185 11.2478C27.3519 11.5939 28.1416 12.6225 28.1416 13.8035V19.0271C28.1416 20.4116 27.0557 21.5864 25.6031 21.6998C25.1672 21.7327 24.7313 21.7632 24.2954 21.7875V25.5547L20.4493 21.8984C18.7134 21.8984 16.9954 21.8314 15.2954 21.6998C14.9254 21.6713 14.5654 21.571 14.2378 21.4048M26.2185 11.2478C26.0204 11.1872 25.8157 11.1483 25.6083 11.132C22.1749 10.8611 18.7237 10.8611 15.2903 11.132C13.8403 11.2466 12.757 12.4202 12.757 13.8035V19.0271C12.757 20.0472 13.3467 20.9527 14.2378 21.4048M26.2185 11.2478V8.96385C26.2185 6.98825 24.7416 5.27591 22.6801 5.02119C20.0273 4.69431 17.355 4.53066 14.6801 4.53125C11.9685 4.53125 9.29801 4.69822 6.68006 5.02119C4.61852 5.27591 3.1416 6.98825 3.1416 8.96385V16.5518C3.1416 18.5274 4.61852 20.2397 6.68006 20.4944C7.41981 20.5858 8.1634 20.6651 8.91083 20.7309V26.4688L14.2378 21.4048" stroke="#BEBEBE" stroke-width="1.5" stroke-linecap="round" stroke-linejoin="round"/>
</svg>
