<svg width="36" height="37" viewBox="0 0 36 37" fill="none" xmlns="http://www.w3.org/2000/svg">
<path d="M25.0077 23.9109C25.6899 23.4317 26.4901 23.161 27.3156 23.13C28.1412 23.0991 28.9584 23.3092 29.6727 23.736C30.387 24.1629 30.9692 24.789 31.352 25.5419C31.7348 26.2949 31.9024 27.144 31.8357 27.9909C30.0859 28.6199 28.2274 28.8647 26.38 28.7094C26.3744 27.0093 25.8984 25.3445 25.0077 23.9124C24.2172 22.6371 23.1267 21.5874 21.8371 20.8607C20.5475 20.1339 19.1005 19.7534 17.63 19.7544C16.1598 19.7536 14.7131 20.1342 13.4238 20.861C12.1345 21.5878 11.0442 22.6373 10.2538 23.9124M26.3786 28.7079L26.38 28.7544C26.38 29.0919 26.3625 29.4249 26.3261 29.7534C23.6797 31.3151 20.681 32.1344 17.63 32.1294C14.4655 32.1294 11.4948 31.2654 8.93399 29.7534C8.8965 29.4063 8.87848 29.0572 8.88003 28.7079M8.88003 28.7079C7.03324 28.8688 5.17573 28.6249 3.42733 27.9924C3.36075 27.1457 3.52853 26.297 3.91124 25.5442C4.29396 24.7915 4.87599 24.1656 5.59004 23.7388C6.30408 23.3121 7.12099 23.1019 7.94629 23.1326C8.77159 23.1633 9.57159 23.4337 10.2538 23.9124M8.88003 28.7079C8.88527 27.008 9.36365 25.3447 10.2538 23.9124M22.005 10.7544C22.005 11.9479 21.5441 13.0925 20.7236 13.9364C19.9032 14.7803 18.7904 15.2544 17.63 15.2544C16.4697 15.2544 15.3569 14.7803 14.5364 13.9364C13.716 13.0925 13.255 11.9479 13.255 10.7544C13.255 9.56092 13.716 8.41633 14.5364 7.57241C15.3569 6.7285 16.4697 6.25439 17.63 6.25439C18.7904 6.25439 19.9032 6.7285 20.7236 7.57241C21.5441 8.41633 22.005 9.56092 22.005 10.7544ZM30.755 15.2544C30.755 15.6976 30.6702 16.1365 30.5053 16.546C30.3404 16.9554 30.0987 17.3275 29.794 17.6409C29.4893 17.9543 29.1276 18.2029 28.7295 18.3725C28.3314 18.5421 27.9047 18.6294 27.4738 18.6294C27.0429 18.6294 26.6162 18.5421 26.2181 18.3725C25.82 18.2029 25.4583 17.9543 25.1536 17.6409C24.8489 17.3275 24.6072 16.9554 24.4423 16.546C24.2774 16.1365 24.1925 15.6976 24.1925 15.2544C24.1925 14.3593 24.5382 13.5008 25.1536 12.8679C25.7689 12.235 26.6035 11.8794 27.4738 11.8794C28.344 11.8794 29.1786 12.235 29.794 12.8679C30.4093 13.5008 30.755 14.3593 30.755 15.2544ZM11.0675 15.2544C11.0675 15.6976 10.9827 16.1365 10.8178 16.546C10.6529 16.9554 10.4112 17.3275 10.1065 17.6409C9.80179 17.9543 9.44006 18.2029 9.04196 18.3725C8.64386 18.5421 8.21718 18.6294 7.78628 18.6294C7.35538 18.6294 6.9287 18.5421 6.5306 18.3725C6.1325 18.2029 5.77078 17.9543 5.46609 17.6409C5.1614 17.3275 4.9197 16.9554 4.7548 16.546C4.58991 16.1365 4.50503 15.6976 4.50503 15.2544C4.50503 14.3593 4.85074 13.5008 5.46609 12.8679C6.08144 12.235 6.91604 11.8794 7.78628 11.8794C8.65653 11.8794 9.49112 12.235 10.1065 12.8679C10.7218 13.5008 11.0675 14.3593 11.0675 15.2544Z" stroke="#BEBEBE" stroke-width="1.5" stroke-linecap="round" stroke-linejoin="round"/>
</svg>
