<svg width="41" height="41" viewBox="0 0 41 41" fill="none" xmlns="http://www.w3.org/2000/svg">
<path d="M16.6191 7.19606C16.7691 6.29273 17.5524 5.62939 18.4691 5.62939H22.7907C23.7074 5.62939 24.4907 6.29273 24.6407 7.19606L24.9957 9.33106C25.1007 9.95439 25.5174 10.4744 26.0707 10.7811C26.1941 10.8477 26.3157 10.9194 26.4374 10.9927C26.9791 11.3194 27.6374 11.4211 28.229 11.1994L30.2574 10.4394C30.673 10.2831 31.1307 10.2794 31.5488 10.4289C31.967 10.5785 32.3185 10.8716 32.5407 11.2561L34.7007 15.001C34.9225 15.3856 35.0006 15.8363 34.9213 16.273C34.8419 16.7097 34.6102 17.1041 34.2674 17.386L32.5957 18.7644C32.1074 19.166 31.8657 19.786 31.879 20.4177C31.8814 20.5594 31.8814 20.701 31.879 20.8427C31.8657 21.4727 32.1074 22.0927 32.5957 22.4944L34.269 23.8727C34.9757 24.456 35.159 25.4644 34.7024 26.256L32.539 30.001C32.3171 30.3854 31.966 30.6786 31.5482 30.8285C31.1304 30.9783 30.673 30.9751 30.2574 30.8194L28.229 30.0594C27.6374 29.8377 26.9791 29.9394 26.4357 30.266C26.3149 30.3395 26.1927 30.4107 26.0691 30.4794C25.5174 30.7844 25.1007 31.3043 24.9957 31.9277L24.6407 34.0627C24.4907 34.9677 23.7074 35.6293 22.7907 35.6293H18.4674C17.5507 35.6293 16.7691 34.966 16.6174 34.0627L16.2624 31.9277C16.1591 31.3043 15.7424 30.7844 15.1891 30.4777C15.0655 30.4095 14.9432 30.3389 14.8224 30.266C14.2807 29.9394 13.6224 29.8377 13.0291 30.0594L11.0007 30.8194C10.5853 30.9752 10.128 30.9787 9.71025 30.8292C9.29247 30.6796 8.94127 30.3868 8.71908 30.0027L6.55742 26.2577C6.33566 25.8732 6.2575 25.4225 6.33685 24.9858C6.4162 24.549 6.64791 24.1546 6.99075 23.8727L8.66408 22.4944C9.15075 22.0944 9.39241 21.4727 9.38075 20.8427C9.37814 20.701 9.37814 20.5594 9.38075 20.4177C9.39241 19.7844 9.15075 19.166 8.66408 18.7644L6.99075 17.386C6.64832 17.1042 6.41688 16.7101 6.33754 16.2737C6.2582 15.8374 6.33611 15.3871 6.55742 15.0027L8.71908 11.2577C8.94106 10.8729 9.29243 10.5795 9.7106 10.4296C10.1288 10.2797 10.5866 10.2832 11.0024 10.4394L13.0291 11.1994C13.6224 11.4211 14.2807 11.3194 14.8224 10.9927C14.9424 10.9194 15.0657 10.8494 15.1891 10.7794C15.7424 10.4744 16.1591 9.95439 16.2624 9.33106L16.6191 7.19606Z" stroke="#BEBEBE" stroke-width="1.11111" stroke-linecap="round" stroke-linejoin="round"/>
<path d="M25.6289 20.6294C25.6289 21.9555 25.1021 23.2272 24.1644 24.1649C23.2267 25.1026 21.955 25.6294 20.6289 25.6294C19.3028 25.6294 18.031 25.1026 17.0934 24.1649C16.1557 23.2272 15.6289 21.9555 15.6289 20.6294C15.6289 19.3033 16.1557 18.0315 17.0934 17.0939C18.031 16.1562 19.3028 15.6294 20.6289 15.6294C21.955 15.6294 23.2267 16.1562 24.1644 17.0939C25.1021 18.0315 25.6289 19.3033 25.6289 20.6294Z" stroke="#BEBEBE" stroke-width="1.11111" stroke-linecap="round" stroke-linejoin="round"/>
</svg>
