<svg width="12" height="9" viewBox="0 0 12 9" fill="none" xmlns="http://www.w3.org/2000/svg">
<path fill-rule="evenodd" clip-rule="evenodd" d="M6.35356 7.88825C6.25981 7.99944 6.13272 8.0619 6.00022 8.0619C5.86772 8.0619 5.74064 7.99944 5.64689 7.88825L0.64689 1.95075C0.55857 1.8382 0.510488 1.68933 0.512773 1.5355C0.515059 1.38168 0.567533 1.23492 0.659142 1.12613C0.750751 1.01735 0.874341 0.955035 1.00387 0.952321C1.13341 0.949607 1.25877 1.0067 1.35356 1.11158L6.00022 6.6295L10.6469 1.11158C10.6927 1.05325 10.7479 1.00646 10.8092 0.974008C10.8705 0.941556 10.9367 0.924106 11.0039 0.9227C11.071 0.921293 11.1377 0.935958 11.2 0.965821C11.2622 0.995683 11.3188 1.04013 11.3662 1.09651C11.4137 1.15289 11.4512 1.22005 11.4763 1.29399C11.5015 1.36792 11.5138 1.44711 11.5126 1.52683C11.5114 1.60655 11.4967 1.68518 11.4694 1.75801C11.4421 1.83084 11.4027 1.89639 11.3536 1.95075L6.35356 7.88825Z" fill="white"/>
</svg>
