<svg width="31" height="31" viewBox="0 0 31 31" fill="none" xmlns="http://www.w3.org/2000/svg">
<path d="M11.1406 15.5C11.1406 15.6285 11.0896 15.7517 10.9988 15.8425C10.9079 15.9333 10.7847 15.9844 10.6562 15.9844C10.5278 15.9844 10.4046 15.9333 10.3137 15.8425C10.2229 15.7517 10.1719 15.6285 10.1719 15.5C10.1719 15.3715 10.2229 15.2483 10.3137 15.1575C10.4046 15.0667 10.5278 15.0156 10.6562 15.0156C10.7847 15.0156 10.9079 15.0667 10.9988 15.1575C11.0896 15.2483 11.1406 15.3715 11.1406 15.5ZM11.1406 15.5H10.6562M15.9844 15.5C15.9844 15.6285 15.9333 15.7517 15.8425 15.8425C15.7517 15.9333 15.6285 15.9844 15.5 15.9844C15.3715 15.9844 15.2483 15.9333 15.1575 15.8425C15.0667 15.7517 15.0156 15.6285 15.0156 15.5C15.0156 15.3715 15.0667 15.2483 15.1575 15.1575C15.2483 15.0667 15.3715 15.0156 15.5 15.0156C15.6285 15.0156 15.7517 15.0667 15.8425 15.1575C15.9333 15.2483 15.9844 15.3715 15.9844 15.5ZM15.9844 15.5H15.5M20.8281 15.5C20.8281 15.6285 20.7771 15.7517 20.6863 15.8425C20.5954 15.9333 20.4722 15.9844 20.3437 15.9844C20.2153 15.9844 20.0921 15.9333 20.0012 15.8425C19.9104 15.7517 19.8594 15.6285 19.8594 15.5C19.8594 15.3715 19.9104 15.2483 20.0012 15.1575C20.0921 15.0667 20.2153 15.0156 20.3437 15.0156C20.4722 15.0156 20.5954 15.0667 20.6863 15.1575C20.7771 15.2483 20.8281 15.3715 20.8281 15.5ZM20.8281 15.5H20.3437M27.125 15.5C27.125 21.3848 21.9196 26.1562 15.5 26.1562C14.3855 26.1576 13.2758 26.0112 12.1998 25.721C10.6831 26.7877 8.83284 27.2724 6.98792 27.0862C6.78279 27.0665 6.57855 27.0384 6.37567 27.0023C7.01229 26.252 7.44707 25.3518 7.63892 24.3867C7.75517 23.7964 7.46712 23.2229 7.03571 22.8031C5.07625 20.8966 3.875 18.3275 3.875 15.5C3.875 9.61517 9.08042 4.84375 15.5 4.84375C21.9196 4.84375 27.125 9.61517 27.125 15.5Z" stroke="white" stroke-width="1.5" stroke-linecap="round" stroke-linejoin="round"/>
</svg>
