<svg width="51" height="50" viewBox="0 0 51 50" fill="none" xmlns="http://www.w3.org/2000/svg">
<path d="M25.6287 18.5186V30.7408M31.8323 24.6297H19.425M44.2397 24.6297C44.2397 27.0373 43.7583 29.4212 42.8231 31.6455C41.8878 33.8698 40.5169 35.8909 38.7887 37.5933C37.0605 39.2957 35.0088 40.6461 32.7508 41.5675C30.4928 42.4888 28.0727 42.963 25.6287 42.963C23.1846 42.963 20.7645 42.4888 18.5065 41.5675C16.2485 40.6461 14.1968 39.2957 12.4686 37.5933C10.7404 35.8909 9.36956 33.8698 8.43426 31.6455C7.49897 29.4212 7.01758 27.0373 7.01758 24.6297C7.01758 19.7674 8.97838 15.1042 12.4686 11.6661C15.9589 8.22793 20.6927 6.29639 25.6287 6.29639C30.5646 6.29639 35.2984 8.22793 38.7887 11.6661C42.2789 15.1042 44.2397 19.7674 44.2397 24.6297Z" stroke="#BEBEBE" stroke-width="1.11111" stroke-linecap="round" stroke-linejoin="round"/>
</svg>
